<?xml version="1.0" encoding="utf-8"?>
<!-- Svg Vector Icons : http://www.onlinewebfonts.com/icon -->
<!DOCTYPE svg PUBLIC "-//W3C//DTD SVG 1.1//EN" "http://www.w3.org/Graphics/SVG/1.1/DTD/svg11.dtd">
<svg version="1.1" xmlns="http://www.w3.org/2000/svg" xmlns:xlink="http://www.w3.org/1999/xlink" x="0px" y="0px" viewBox="0 0 1000 1000" enable-background="new 0 0 1000 1000" xml:space="preserve">
<metadata> Svg Vector Icons : http://www.onlinewebfonts.com/icon </metadata>
<g><g><g><path d="M920.2,717.9L945.4,530c-25.2,9.8-58.5,18.6-99.2,26.2c-94.9,17.8-220.8,27.6-354.6,27.6c-133.8,0-259.8-9.8-354.6-27.6c-40.4-7.6-73.5-16.3-98.7-26l25.8,187.6c1.1,5.7,5.2,13.8,9.7,17.7c34,28.5,107.2,62.8,250.7,78V658.1c0-14.7,11.9-26.6,26.6-26.6h280.8c14.7,0,26.6,11.9,26.6,26.6v155.7c144.2-14.8,216.9-48.5,251.9-78.3C914.9,731.7,919.1,723.7,920.2,717.9z"/><path d="M966.2,375.5c-3.1,1.6-6.4,3.2-9.9,4.7c-26.2,11.6-63.2,21.9-110.2,30.8c-94.9,17.8-220.8,27.6-354.6,27.6c-133.8,0-259.8-9.8-354.6-27.6c-46.9-8.8-84-19.2-110.2-30.8c-3.4-1.5-6.7-3.1-9.8-4.7l16.2,117.6c2,1,4.2,2,6.6,3.1c23.6,10.4,59.2,20.3,103,28.5c93,17.5,216.9,27,348.8,27c131.9,0,255.7-9.6,348.8-27c43.8-8.2,79.5-18.1,103-28.5c2.6-1.2,4.9-2.2,7-3.3L966.2,375.5z"/><path d="M39.8,351.1c23.6,10.4,59.2,20.3,103,28.5l0,0c1.1-0.6,2.2-1.2,3.6-1.5c77.6-18.1,206.1-28.8,343.9-28.8c139.5,0,269,11,346.4,29.5c1,0.2,1.9,0.6,2.8,1.1c0.3,0,0.5-0.1,0.9-0.1c43.8-8.2,79.5-18.1,103-28.5c19.2-8.5,26.5-15.6,28.7-19.4c0.6-1.1,0.9-1.8,0.9-2.3c0-2.3-5.3-11-29.6-21.7c-10.4-4.6-23.2-9.2-38-13.4v-16.6v-16.6v-20.6l80.9-48.1c5-3,5-7.9,0-10.9l-90.2-53c-2-0.9-4.3-1.4-6.6-1.4c-8.8,0-16,7.1-16,16v110.2v16.4V286c-10.4-2.4-21.5-4.7-33.1-6.9c-89-16.7-206-26.2-331.5-27v-16v-16v-16l80.9-48.1c5-3,5-7.9,0-10.9l-90.4-52.9c-2-0.9-4.3-1.4-6.6-1.4c-8.8,0-16,7.1-16,16v113.2v16v16c-126.3,0.6-244.6,10.2-334.1,27c-10.7,2-20.9,4.2-30.5,6.3V269v-16.4v-12.3l80.9-48.1c5-3,5-7.9,0-10.9l-90.4-52.9c-2-0.9-4.3-1.4-6.6-1.4c-8.8,0-16,7.1-16,16v117.3v16.5v16.6c-15.9,4.5-29.6,9.3-40.5,14.2C15.3,318.3,10,326.9,10,329.2c0,0.5,0.2,1.3,0.9,2.3C13.3,335.5,20.6,342.5,39.8,351.1z"/><path d="M769,390.6c-74.6-11-173.6-17.1-278.6-17.1c-104.3,0-203,6.2-277.6,17c81.3,10.5,177.7,16.2,278.7,16.2C592.2,406.6,687.9,401.1,769,390.6z"/><path d="M356.5,663.5v153v30.7l-16,5.3l-16,5.3l-20.4,6.7c-5.5,1.8-10.1,8.1-10.1,13.9v19.9c0,5.9,4.8,10.6,10.6,10.6h373.7c5.9,0,10.6-4.8,10.6-10.6v-19.9c0-5.9-4.6-12.1-10.1-13.9l-20.4-6.7l-16-5.3l-16-5.3v-30.4V663.5h-39v137.2H395.5V663.5H356.5z"/></g></g><g></g><g></g><g></g><g></g><g></g><g></g><g></g><g></g><g></g><g></g><g></g><g></g><g></g><g></g><g></g></g>
</svg>